<svg width="39" height="39" viewBox="0 0 39 39" fill="none" xmlns="http://www.w3.org/2000/svg">
<g clip-path="url(#clip0_176_322)">
<path d="M22.7874 5.13059L30.496 9.58606C31.7721 8.24309 33.8956 8.18801 35.2385 9.46418C35.4647 9.6845 35.6663 9.93411 35.8245 10.2083C36.7456 11.8138 36.1913 13.8646 34.5788 14.7857C34.3104 14.938 34.0175 15.0599 33.7057 15.1337V24.0388C35.4999 24.4665 36.605 26.2607 36.1772 28.0548C36.1034 28.3724 35.9757 28.6771 35.8175 28.9583C34.8893 30.5579 32.8456 31.1064 31.2401 30.1794C30.9354 30.0083 30.6542 29.7763 30.4221 29.5138L22.7557 33.9388C23.3358 35.6907 22.3831 37.5822 20.6311 38.1622C20.2889 38.2782 19.935 38.3333 19.5811 38.3333C17.7378 38.3333 16.2366 36.8439 16.2366 34.9947C16.2366 34.6771 16.2858 34.3536 16.3772 34.0419L8.66277 29.5923C7.3866 30.9294 5.26902 30.9845 3.93308 29.7025C2.60301 28.4263 2.55379 26.3146 3.82293 24.9786C4.26824 24.5146 4.8366 24.1853 5.45886 24.0329V15.1279C3.66472 14.7001 2.55379 12.8943 2.98738 11.0931C3.06121 10.7814 3.18308 10.4825 3.34129 10.2083C4.26238 8.60872 6.31316 8.06028 7.91277 8.98723C8.18699 9.14543 8.44363 9.34114 8.66394 9.57317L16.3784 5.12356C15.8534 3.35403 16.8671 1.49192 18.6307 0.972778C18.9354 0.875513 19.2589 0.832153 19.5835 0.832153C21.4268 0.832153 22.928 2.32161 22.928 4.16497C22.928 4.49426 22.8788 4.8177 22.7874 5.12942V5.13059ZM21.9823 6.50403C21.9518 6.5345 21.9272 6.56497 21.8909 6.59543L31.9866 24.0763C32.0288 24.0646 32.078 24.0517 32.1143 24.04V15.1232C30.3261 14.6837 29.2397 12.8708 29.685 11.0825C29.6909 11.0462 29.7038 11.0029 29.7096 10.9665L21.9823 6.50403ZM17.2702 6.59543L17.1788 6.50403L9.45144 10.9595C9.96472 12.729 8.93816 14.5794 7.16863 15.0915C7.12644 15.1032 7.08894 15.1103 7.04675 15.122V24.0388L7.18152 24.0751L17.2772 6.59426L17.2702 6.59543ZM20.5175 7.38879C19.9069 7.55989 19.26 7.55989 18.6553 7.38879L8.55965 24.8697C9.01785 25.3091 9.34129 25.8763 9.49949 26.4997H29.6721C29.8245 25.8775 30.1479 25.3091 30.612 24.8638L20.5175 7.38879ZM22.055 32.7423L29.7331 28.3056C29.7085 28.2318 29.6909 28.1591 29.6721 28.0853H9.49363L9.4573 28.213L17.1788 32.6685C17.7835 32.0404 18.6378 31.6489 19.5835 31.6489C20.5667 31.6489 21.4456 32.0708 22.055 32.7423Z" fill="#A9157B"/>
</g>
<defs>
<clipPath id="clip0_176_322">
<rect width="37.5" height="37.5" fill="white" transform="translate(0.833496 0.833374)"/>
</clipPath>
</defs>
</svg>
