<svg width="39" height="39" viewBox="0 0 39 39" fill="none" xmlns="http://www.w3.org/2000/svg">
<g clip-path="url(#clip0_176_326)">
<path d="M37.1993 19.2962C37.1993 17.0427 35.4918 15.1463 33.1996 14.6052L38.3333 0.866455H12.8919L18.0373 14.6486C15.8172 15.2333 14.1807 17.0966 14.1807 19.3077C14.1807 20.9325 15.0766 22.3733 16.4374 23.2616C15.9007 23.955 15.2793 24.5946 14.5753 25.201C13.2502 26.3284 11.7807 27.1947 10.1934 27.7692C8.76078 26.8915 8.14027 25.3419 8.70101 23.9547C10.8857 23.3483 12.4745 21.4956 12.4745 19.3179C12.4745 16.6422 10.0745 14.4746 7.13656 14.4746C4.18754 14.4746 1.789 16.6525 1.789 19.3291C1.789 20.6512 2.38519 21.8641 3.34086 22.7304C3.25707 22.8828 3.17387 23.0336 3.09008 23.1962C2.29027 24.6921 1.38266 26.3823 1.03578 28.2787C0.343495 32.07 1.47758 35.1154 4.21156 36.8377C5.75199 37.8025 7.44799 38.29 9.27465 38.29C12.4135 38.29 15.6019 36.8594 18.6816 35.4722C20.8788 34.487 23.147 33.4569 25.3797 32.9591C26.2038 32.7749 27.0631 32.6662 27.9707 32.5472C29.8085 32.309 31.7073 32.0597 33.4147 31.1603C35.4083 30.1097 36.7692 28.354 37.1638 26.3389C37.4612 24.7891 37.1638 23.2293 36.3992 21.8641C36.9215 21.1098 37.2008 20.2137 37.1993 19.2962ZM34.8716 19.2962C34.8716 20.8021 33.5222 22.0267 31.8628 22.0267C30.2035 22.0267 28.854 20.8021 28.854 19.2962C28.854 18.8084 28.9973 18.3429 29.2478 17.9421C29.343 17.7898 29.4631 17.6389 29.5818 17.5085C29.7075 17.3745 29.8478 17.2547 29.9998 17.1514L30.0124 17.14C30.1074 17.0749 30.2149 17.0096 30.3224 16.9455C30.3224 16.9455 30.3341 16.9455 30.3341 16.934C30.3819 16.9124 30.4299 16.8801 30.4783 16.8584C30.4897 16.8584 30.5011 16.847 30.5134 16.847C30.5618 16.8265 30.6212 16.8048 30.6804 16.7829C30.7369 16.7631 30.7927 16.7414 30.8477 16.7178C30.8594 16.7178 30.8717 16.7061 30.8831 16.7061C30.9312 16.6961 30.9792 16.6742 31.0264 16.6639C31.039 16.6639 31.063 16.6525 31.0744 16.6525C31.1339 16.6422 31.182 16.6308 31.2414 16.6203H31.254L31.4327 16.5872C31.4451 16.5872 31.4679 16.5872 31.4805 16.5769C31.5286 16.5769 31.5757 16.5655 31.6238 16.5655H31.6832C31.7427 16.5655 31.8034 16.5552 31.8743 16.5552H32.0298C32.0767 16.5552 32.1136 16.5552 32.1605 16.5655H32.1845C32.2806 16.5772 32.3755 16.5872 32.4716 16.6091C33.8325 16.8687 34.8716 17.9744 34.8716 19.2962ZM16.2221 3.03296H35.002L30.6921 14.5721C30.5134 14.6052 30.3338 14.6588 30.1554 14.7127L25.6191 6.31626L21.0699 14.6585C20.8903 14.6049 20.6993 14.5718 20.5091 14.5396L16.2221 3.03296ZM24.7583 18.3529C24.5319 17.3342 23.9585 16.4246 23.147 15.7528L25.6191 11.2244L28.1137 15.85C27.3734 16.5218 26.8364 17.3779 26.6213 18.3529H24.7583ZM18.7777 16.6419C18.8371 16.6302 18.8852 16.6203 18.9447 16.6088H18.9801C19.0282 16.5986 19.0765 16.5986 19.1234 16.5869H19.1714C19.2195 16.5869 19.2549 16.5766 19.303 16.5766H19.7688C19.8157 16.5766 19.8523 16.5869 19.8877 16.5869C19.9118 16.5869 19.9232 16.5869 19.9472 16.5986C19.9953 16.6088 20.0307 16.6088 20.079 16.6203C20.0902 16.6203 20.1028 16.6203 20.1268 16.6305C20.1866 16.6419 20.246 16.6522 20.2938 16.6636H20.3055C20.3535 16.6739 20.4016 16.6841 20.4485 16.7061C20.4611 16.7061 20.4725 16.7175 20.4965 16.7175C20.532 16.7278 20.58 16.7392 20.6155 16.7609C20.6281 16.7609 20.6395 16.7711 20.6521 16.7711C20.699 16.7931 20.7473 16.8045 20.7953 16.8262H20.8068C20.8662 16.8467 20.9143 16.8684 20.9623 16.9018H20.9741C21.0218 16.9235 21.0699 16.9554 21.1179 16.9771C21.1296 16.9771 21.1296 16.9888 21.1408 16.9888C21.1888 17.0093 21.2245 17.0424 21.2726 17.0641L21.2852 17.0744C21.4282 17.1719 21.5597 17.2806 21.6901 17.3893L21.7027 17.3996C21.8219 17.5185 21.9409 17.6489 22.0369 17.7898C22.3472 18.2234 22.5268 18.7329 22.5268 19.2854C22.5268 20.7916 21.1774 22.015 19.518 22.015C17.8586 22.015 16.5092 20.7916 16.5092 19.2854C16.4969 18.0174 17.464 16.9452 18.7777 16.6419ZM7.02904 16.5652C8.68871 16.5652 10.0378 17.7898 10.0378 19.2957C10.0378 20.8018 8.68871 22.0261 7.02904 22.0261C5.36967 22.0261 4.02025 20.8018 4.02025 19.2957C4.02025 17.7898 5.36967 16.5652 7.02904 16.5652ZM34.7995 25.9598C34.5373 27.3456 33.5931 28.5599 32.2085 29.2853C30.9072 29.9685 29.3073 30.1847 27.6239 30.4012C26.7051 30.5202 25.738 30.6505 24.8064 30.8565C22.3232 31.4093 19.9358 32.493 17.6196 33.5322C14.6588 34.8655 11.8642 36.122 9.27465 36.122C7.92523 36.122 6.71908 35.7754 5.57357 35.0498C2.94711 33.403 3.07748 30.3154 3.3889 28.6249C3.67484 27.0423 4.47494 25.5582 5.2393 24.139C5.28617 24.052 5.32279 23.9764 5.36967 23.8894C5.63305 23.9764 5.90756 24.0417 6.19379 24.0851C5.74057 26.382 7.02904 28.7544 9.53656 29.9251L9.99066 30.1414L10.4796 29.9788C12.5694 29.307 14.5033 28.213 16.2107 26.7502C17.1778 25.9264 18.0019 25.0384 18.6942 24.0737C18.9687 24.1173 19.2435 24.1288 19.518 24.1288C22.0015 24.1288 24.0901 22.579 24.6874 20.4986H26.6925C27.2899 22.5895 29.3793 24.1285 31.8628 24.1285C32.8539 24.1285 33.773 23.8794 34.5602 23.457C34.8716 24.2694 34.9665 25.114 34.7995 25.9598Z" fill="white"/>
</g>
<defs>
<clipPath id="clip0_176_326">
<rect width="37.5" height="37.5" fill="white" transform="translate(0.833496 0.833374)"/>
</clipPath>
</defs>
</svg>
