<svg width="39" height="39" viewBox="0 0 39 39" fill="none" xmlns="http://www.w3.org/2000/svg">
<g clip-path="url(#clip0_176_342)">
<path d="M18.1885 0.843465C18.1079 0.850796 17.8513 0.876452 17.6203 0.894778C12.2941 1.37491 7.30507 4.24839 4.14524 8.6649C2.38571 11.1205 1.26035 13.9061 0.835126 16.8565C0.684832 17.8864 0.666504 18.1906 0.666504 19.587C0.666504 20.9835 0.684832 21.2877 0.835126 22.3176C1.85419 29.3583 6.86518 35.2739 13.6614 37.4656C14.8784 37.8578 16.1614 38.1254 17.6203 38.2866C18.1885 38.3489 20.6445 38.3489 21.2127 38.2866C23.731 38.0081 25.8645 37.385 27.9686 36.3111C28.2911 36.1462 28.3535 36.1022 28.3095 36.0656C28.2801 36.0436 26.9055 34.2 25.2559 31.9716L22.2574 27.9216L18.5001 22.3616C16.4326 19.3048 14.7318 16.8052 14.7171 16.8052C14.7024 16.8015 14.6878 19.2718 14.6804 22.2883C14.6694 27.5697 14.6658 27.7823 14.5998 27.9069C14.5045 28.0865 14.4312 28.1598 14.2772 28.2405C14.1599 28.2991 14.0573 28.3101 13.5037 28.3101H12.8696L12.701 28.2038C12.591 28.1342 12.5103 28.0425 12.4554 27.9363L12.3784 27.7713L12.3857 20.4227L12.3967 13.0704L12.5103 12.9275C12.569 12.8505 12.6936 12.7515 12.7816 12.7039C12.9319 12.6306 12.9906 12.6233 13.6247 12.6233C14.3725 12.6233 14.4971 12.6526 14.6914 12.8652C14.7464 12.9238 16.7809 15.9879 19.2149 19.6787C21.6489 23.3695 24.9774 28.4091 26.6123 30.883L29.5815 35.3802L29.7318 35.2812C31.0624 34.4162 32.47 33.1848 33.5844 31.902C35.9561 29.1787 37.4847 25.8581 37.9979 22.3176C38.1482 21.2877 38.1665 20.9835 38.1665 19.587C38.1665 18.1906 38.1482 17.8864 37.9979 16.8565C36.9788 9.81575 31.9678 3.9002 25.1716 1.70844C23.973 1.31993 22.6973 1.05238 21.2677 0.891112C20.9158 0.854461 18.4928 0.814144 18.1885 0.843465ZM25.8645 12.1834C26.0404 12.2714 26.1834 12.44 26.2347 12.6159C26.264 12.7112 26.2713 14.749 26.264 19.3415L26.253 25.9314L25.091 24.1502L23.9253 22.3689V17.5785C23.9253 14.4815 23.94 12.7405 23.962 12.6562C24.0206 12.451 24.1489 12.2897 24.3249 12.1944C24.4752 12.1175 24.5301 12.1101 25.1057 12.1101C25.6482 12.1101 25.7435 12.1175 25.8645 12.1834Z" fill="black"/>
</g>
<defs>
<clipPath id="clip0_176_342">
<rect width="37.5" height="37.5" fill="white" transform="translate(0.666504 0.833374)"/>
</clipPath>
</defs>
</svg>
