<svg width="39" height="39" viewBox="0 0 39 39" fill="none" xmlns="http://www.w3.org/2000/svg">
<path d="M22.556 19.5552C22.556 17.8742 21.1506 16.5114 19.4167 16.5114C17.683 16.5114 16.2773 17.8742 16.2773 19.5552C16.2773 21.2364 17.683 22.5991 19.4167 22.5991C21.1506 22.5991 22.556 21.2364 22.556 19.5552Z" fill="#33A0B3"/>
<path fill-rule="evenodd" clip-rule="evenodd" d="M29.6123 13.9041C30.2752 11.2921 31.1085 6.44839 28.1709 4.80622C25.2469 3.1712 21.442 6.30419 19.4328 8.18476C17.4295 6.32293 13.5176 3.20334 10.5825 4.85072C7.65968 6.49122 8.561 11.2546 9.23865 13.883C6.51218 14.6338 1.83838 16.251 1.83838 19.5551C1.83838 22.8499 6.50732 24.6093 9.21765 25.3594C8.5375 28.0024 7.6813 32.6977 10.6078 34.3346C13.554 35.9817 17.4536 32.9363 19.4814 31.0352C21.5035 32.9268 25.2719 35.9921 28.1964 34.3506C31.1301 32.704 30.366 27.9252 29.6883 25.2816C32.3157 24.5299 36.9946 22.8087 36.9946 19.5551C36.9946 16.2828 32.2958 14.6525 29.6123 13.9041ZM29.2792 23.8806C28.8343 22.5149 28.2337 21.0626 27.499 19.5624C28.2003 18.0976 28.7776 16.664 29.2101 15.3071C31.1773 15.8601 35.4929 17.124 35.4929 19.5551C35.4929 22.0092 31.3516 23.285 29.2792 23.8806ZM27.4438 33.0904C25.2618 34.315 22.0205 31.3837 20.5272 29.9907C21.5179 28.9401 22.5079 27.7188 23.4741 26.3626C25.1738 26.2164 26.7794 25.9774 28.2356 25.651C28.7125 27.521 29.6355 31.8603 27.4438 33.0904ZM11.3582 33.0729C9.17599 31.8529 10.1734 27.663 10.6738 25.7161C12.1138 26.0251 13.7078 26.2472 15.4115 26.3812C16.384 27.7082 17.4028 28.928 18.4293 29.9963C17.161 31.1859 13.5507 34.2986 11.3582 33.0729ZM3.34013 19.5551C3.34013 17.092 7.62987 15.8372 9.64194 15.2856C10.0819 16.673 10.659 18.1237 11.3554 19.5906C10.65 21.0794 10.0647 22.553 9.62063 23.9568C7.70208 23.4243 3.34013 22.0198 3.34013 19.5551ZM11.3349 6.11096C13.5261 4.88122 16.9259 7.87614 18.3804 9.22415C17.3592 10.2875 16.3498 11.4981 15.3856 12.8176C13.7322 12.9661 12.1494 13.2047 10.6943 13.5244C10.1484 11.4045 9.1461 7.33938 11.3349 6.11096ZM24.5485 14.4003C25.6702 14.5375 26.7449 14.7201 27.754 14.9435C27.4511 15.8849 27.0735 16.8694 26.6288 17.8786C25.9842 16.6927 25.2922 15.5306 24.5485 14.4003ZM19.4333 10.2647C20.126 10.9923 20.8197 11.8048 21.5022 12.6863C20.1179 12.6228 18.7313 12.6226 17.347 12.6854C18.0301 11.8121 18.7298 11.0008 19.4333 10.2647ZM12.2171 17.8776C11.7797 16.8719 11.4055 15.8831 11.1 14.9281C12.103 14.7105 13.1728 14.5326 14.2872 14.3976C13.5414 15.5254 12.8506 16.6871 12.2171 17.8776ZM14.3192 24.8166C13.1679 24.692 12.082 24.5232 11.0793 24.3115C11.3897 23.3398 11.7721 22.3297 12.2188 21.3023C12.861 22.5052 13.5624 23.6781 14.3192 24.8166ZM19.4749 28.9484C18.7631 28.2037 18.053 27.38 17.3596 26.494C18.7518 26.547 20.1467 26.5471 21.5388 26.4869C20.8542 27.389 20.1629 28.2139 19.4749 28.9484ZM26.6431 21.25C27.113 22.2885 27.5091 23.2932 27.8238 24.2485C26.8044 24.4741 25.7038 24.6557 24.5443 24.7906C25.2935 23.6389 25.9965 22.4587 26.6431 21.25ZM22.636 24.9671C20.5065 25.1146 18.3637 25.113 16.2335 24.9792C15.023 23.2648 13.9455 21.4619 13.0154 19.5902C13.941 17.7223 15.0107 15.9229 16.2154 14.2113C18.3472 14.0551 20.4921 14.0546 22.6238 14.2122C23.8182 15.9237 24.8862 17.7185 25.8333 19.5694C24.8975 21.4363 23.8222 23.2394 22.636 24.9671ZM27.4208 6.06767C29.6125 7.29338 28.6369 11.6466 28.1581 13.5395C26.6996 13.2132 25.1157 12.9704 23.4575 12.8194C22.4914 11.4858 21.4905 10.273 20.4857 9.2234C21.9589 7.84635 25.2502 4.85395 27.4208 6.06767Z" fill="#33A0B3"/>
</svg>
