<svg width="39" height="39" viewBox="0 0 39 39" fill="none" xmlns="http://www.w3.org/2000/svg">
<g clip-path="url(#clip0_176_305)">
<path d="M32.0333 7.7171C33.3132 8.00843 34.4763 8.66418 35.3757 9.60158C35.8712 10.1089 36.3014 10.6736 36.6568 11.2831C36.6733 11.3493 34.3503 12.8763 32.9414 13.728C32.8903 13.7619 32.6873 13.5456 32.4573 13.2131C32.1999 12.7803 31.8346 12.4183 31.3955 12.1611C30.9564 11.9038 30.4578 11.7596 29.9463 11.742C28.327 11.6332 27.2835 12.4629 27.291 13.8501C27.277 14.1909 27.3564 14.5292 27.521 14.8299C27.8774 15.5507 28.539 15.9832 30.6169 16.8644C34.442 18.4753 36.0839 19.5374 37.0973 21.0468C37.6702 22.0004 38.023 23.0651 38.131 24.1662C38.2391 25.2673 38.0997 26.3782 37.7228 27.421C37.2048 28.5647 36.3834 29.5519 35.3438 30.2801C34.3041 31.0083 33.0843 31.451 31.8108 31.5622C30.4571 31.7141 29.0893 31.7003 27.7391 31.521C25.6709 31.1885 23.7657 30.2173 22.3021 28.7495C21.7491 28.1402 21.281 27.462 20.9098 26.7326C21.0659 26.619 21.2302 26.5167 21.4015 26.4266C21.6391 26.2942 22.5382 25.7881 23.3862 25.3071L24.9259 24.4244L25.2476 24.8834C25.7896 25.6417 26.4794 26.2876 27.2775 26.7841C28.0834 27.2166 28.9964 27.4216 29.9144 27.3761C30.8325 27.3306 31.7196 27.0365 32.4768 26.5266C32.8674 26.1541 33.1116 25.659 33.1666 25.1281C33.2216 24.5972 33.0839 24.0642 32.7776 23.6227C32.3626 23.0416 31.5145 22.5532 29.1043 21.5308C27.2144 20.9072 25.493 19.8738 24.0688 18.5076C23.3906 17.7514 22.8897 16.8592 22.6013 15.8935C22.3881 14.7934 22.3566 13.6669 22.5081 12.557C22.7911 11.2799 23.4685 10.1187 24.4485 9.23085C25.4286 8.34301 26.6639 7.77141 27.9872 7.59353C29.3346 7.436 30.6985 7.47765 32.0333 7.7171ZM19.4889 9.89874L19.5055 12.0377H12.5439V31.3798H7.63473V12.0421H0.673167V9.94141C0.654653 9.22199 0.674728 8.50212 0.73331 7.78477C0.758871 7.75093 4.99144 7.73475 10.1232 7.74358L19.4619 7.76859L19.4889 9.89874Z" fill="white"/>
</g>
<defs>
<clipPath id="clip0_176_305">
<rect width="37.5" height="37.5" fill="white" transform="translate(0.666504 0.833374)"/>
</clipPath>
</defs>
</svg>
