<svg width="20" height="20" viewBox="0 0 20 20" fill="none" xmlns="http://www.w3.org/2000/svg">
<g clip-path="url(#clip0_625_3)">
<path d="M7.73357 19.375C7.73244 19.2304 7.7313 18.604 7.73017 18.0176L7.72903 17.4085C5.1833 17.7681 4.56701 15.923 4.5602 15.9034C4.20684 14.9728 3.72372 14.7067 3.70292 14.6957L3.656 14.6674C3.48084 14.5432 3.01626 14.2127 3.14829 13.7781C3.26747 13.3863 3.7294 13.3458 3.93937 13.3529C5.10233 13.4374 5.69101 14.5232 5.71522 14.5692C6.30881 15.6259 7.21489 15.5167 7.7994 15.2938C7.85388 15.0235 7.93825 14.7751 8.04872 14.5558C6.17375 14.2104 4.04946 13.1745 4.04946 9.40612C4.04946 8.37139 4.35969 7.45691 4.97295 6.68312C4.83599 6.20918 4.68012 5.24243 5.14168 4.02457L5.20751 3.85087L5.37851 3.79428C5.53589 3.74044 6.39544 3.54906 8.16259 4.75041C8.892 4.55628 9.66416 4.45607 10.4605 4.45214C11.2607 4.45607 12.0336 4.55628 12.7645 4.75041C14.5302 3.54866 15.3878 3.7424 15.5456 3.79428L15.7162 3.85126L15.782 4.02418C16.2455 5.24165 16.0896 6.20879 15.9526 6.68312C16.5648 7.45455 16.875 8.36942 16.875 9.40612C16.875 13.1752 14.7484 14.208 12.8693 14.5491C13.0823 14.9677 13.1977 15.4931 13.1977 16.0731C13.1977 16.7345 13.195 18.9042 13.192 19.375L12.4354 19.3695C12.4384 18.8995 12.441 16.7333 12.441 16.0727C12.441 15.1131 12.0843 14.6886 11.9303 14.5503L11.2758 13.962L12.1361 13.8626C14.1053 13.6354 16.118 12.9277 16.118 9.40573C16.118 8.49007 15.824 7.69192 15.244 7.03366L15.0814 6.84935L15.1729 6.61867C15.2357 6.46108 15.5111 5.659 15.1567 4.53938C14.8699 4.55707 14.1851 4.69736 13.0441 5.50102L12.8988 5.6028L12.7305 5.55446C12.0257 5.3509 11.2406 5.24165 10.4601 5.23772C9.68383 5.24165 8.89994 5.3509 8.19626 5.55446L8.02791 5.6028L7.88301 5.50102C6.74085 4.69775 6.05457 4.55628 5.76667 4.53859C5.41294 5.659 5.68873 6.46108 5.75154 6.61867L5.84309 6.84935L5.68079 7.03366C5.09969 7.69427 4.80535 8.49243 4.80535 9.40573C4.80535 12.9261 6.81425 13.6382 8.77926 13.8704L9.63124 13.971L8.98507 14.5566C8.84433 14.6843 8.59539 14.9936 8.51065 15.6283L8.48227 15.844L8.29084 15.9332C7.79108 16.1659 6.08181 16.7829 5.05694 14.9567C5.05126 14.9468 4.85113 14.5853 4.48869 14.3448C4.73309 14.5959 5.03083 15.0022 5.27107 15.6365C5.29604 15.7112 5.78445 17.0599 8.02526 16.5557L8.48152 16.4528L8.48606 18.0161C8.48719 18.6004 8.48833 19.2249 8.48946 19.3695L7.73357 19.375Z" fill="url(#paint0_linear_625_3)"/>
<path d="M10 20C4.48577 20 0 15.5142 0 10C0 4.48577 4.48577 0 10 0C15.5142 0 20 4.48577 20 10C20 15.5142 15.5142 20 10 20ZM10 0.769231C4.91038 0.769231 0.769231 4.91038 0.769231 10C0.769231 15.0896 4.91038 19.2308 10 19.2308C15.0896 19.2308 19.2308 15.0896 19.2308 10C19.2308 4.91038 15.0896 0.769231 10 0.769231Z" fill="url(#paint1_linear_625_3)"/>
</g>
<defs>
<linearGradient id="paint0_linear_625_3" x1="10.0001" y1="3.6528" x2="10.0001" y2="19.1137" gradientUnits="userSpaceOnUse">
<stop stop-color="#6DC7FF"/>
<stop offset="1" stop-color="#E6ABFF"/>
</linearGradient>
<linearGradient id="paint1_linear_625_3" x1="10" y1="-0.384615" x2="10" y2="20.4488" gradientUnits="userSpaceOnUse">
<stop stop-color="#1A6DFF"/>
<stop offset="1" stop-color="#C822FF"/>
</linearGradient>
<clipPath id="clip0_625_3">
<rect width="20" height="20" fill="white"/>
</clipPath>
</defs>
</svg>
