<svg width="39" height="39" viewBox="0 0 39 39" fill="none" xmlns="http://www.w3.org/2000/svg">
<g clip-path="url(#clip0_176_309)">
<path d="M5.69718 35.3151L4.53797 4.4274C4.49968 3.40731 5.28186 2.54279 6.30069 2.47911L32.5728 0.837102C33.6098 0.772286 34.5031 1.56043 34.5679 2.59748C34.5703 2.63655 34.5716 2.67569 34.5716 2.71484V36.3724C34.5716 37.4115 33.7292 38.2538 32.6902 38.2538C32.662 38.2538 32.6339 38.2532 32.6057 38.2519L7.49284 37.124C6.51479 37.0801 5.73389 36.2934 5.69718 35.3151Z" fill="#FF4785"/>
<mask id="mask0_176_309" style="mask-type:luminance" maskUnits="userSpaceOnUse" x="4" y="0" width="31" height="39">
<path d="M5.69718 35.3151L4.53797 4.4274C4.49968 3.40731 5.28186 2.54279 6.30069 2.47911L32.5728 0.837102C33.6098 0.772286 34.5031 1.56043 34.5679 2.59748C34.5703 2.63655 34.5716 2.67569 34.5716 2.71484V36.3724C34.5716 37.4115 33.7292 38.2538 32.6902 38.2538C32.662 38.2538 32.6339 38.2532 32.6057 38.2519L7.49284 37.124C6.51479 37.0801 5.73389 36.2934 5.69718 35.3151Z" fill="white"/>
</mask>
<g mask="url(#mask0_176_309)">
<path d="M26.7152 5.43294L26.8946 1.11686L30.5026 0.833374L30.658 5.2844C30.6634 5.43931 30.5422 5.56927 30.3873 5.57468C30.321 5.57699 30.256 5.55573 30.2039 5.51466L28.8125 4.41861L27.1652 5.6682C27.0417 5.76187 26.8657 5.7377 26.772 5.61421C26.7326 5.56223 26.7125 5.49813 26.7152 5.43294ZM22.101 14.9376C22.101 15.6696 27.0314 15.3188 27.6933 14.8046C27.6933 9.82006 25.0187 7.20075 20.1211 7.20075C15.2234 7.20075 12.4793 9.86082 12.4793 13.8509C12.4793 20.8004 21.8578 20.9334 21.8578 24.724C21.8578 25.788 21.3368 26.4197 20.1905 26.4197C18.6969 26.4197 18.1064 25.657 18.1759 23.0634C18.1759 22.5007 12.4793 22.3253 12.3057 23.0634C11.8634 29.3485 15.7792 31.1614 20.26 31.1614C24.6019 31.1614 28.0059 28.8471 28.0059 24.6575C28.0059 17.2093 18.4885 17.4088 18.4885 13.7179C18.4885 12.2216 19.6 12.0221 20.26 12.0221C20.9547 12.0221 22.2052 12.1446 22.101 14.9376Z" fill="white"/>
</g>
</g>
<defs>
<clipPath id="clip0_176_309">
<rect width="37.5" height="37.5" fill="white" transform="translate(0.833496 0.833374)"/>
</clipPath>
</defs>
</svg>
