<svg width="39" height="39" viewBox="0 0 39 39" fill="none" xmlns="http://www.w3.org/2000/svg">
<g clip-path="url(#clip0_176_330)">
<path d="M37.4695 16.0771C37.5132 16.1552 37.5523 16.2537 37.5913 16.3677C37.5476 16.274 37.5179 16.1662 37.4695 16.0771C38.3945 19.6771 34.4226 23.8943 29.4538 22.7006H29.4554C36.6366 17.9974 33.0991 12.1193 29.7523 9.29431C26.9991 6.96619 28.6257 6.24744 29.7851 6.24744C30.1554 6.24744 30.4773 6.31931 30.596 6.4365C30.5679 4.19744 22.682 4.70212 29.582 11.8959C33.1257 15.5912 28.9445 23.7646 23.9632 17.549C23.9222 17.4928 23.8852 17.4338 23.8523 17.3724C24.657 17.0381 25.3163 16.1302 25.3163 14.6334C25.3245 14.1038 25.2195 13.5786 25.0085 13.0927C25.5835 11.9209 26.1132 10.5193 26.1132 8.76462C26.1132 4.57087 23.3913 0.833374 19.582 0.833374C15.7726 0.833374 13.0507 4.57087 13.0507 8.76462C13.0507 10.5193 13.5804 11.9209 14.1554 13.0943C13.9435 13.5809 13.8386 14.1074 13.8476 14.6381C13.8476 16.1349 14.5054 17.0443 15.3116 17.3771C15.2782 17.4385 15.2406 17.4975 15.1991 17.5537C10.2179 23.7693 6.03664 15.5943 9.58039 11.9006C16.482 4.70681 8.59133 4.20369 8.56321 6.44119L8.57571 6.43494C8.69758 6.31931 9.01321 6.24744 9.38039 6.24744C10.5398 6.24744 12.1663 6.96619 9.41321 9.29431C6.0804 12.1068 2.56477 17.9474 9.63039 22.6412C9.65852 22.6615 9.67727 22.6834 9.70696 22.7037C4.74446 23.8974 0.778833 19.6912 1.68977 16.0912L1.69602 16.0756C1.69446 16.0787 1.6929 16.0834 1.68977 16.0849L1.69133 16.0802L1.68665 16.0912C-0.14773 18.6068 0.73977 25.1209 7.58977 25.7287C7.61946 25.7334 7.64446 25.7427 7.67414 25.7474C0.861644 27.3099 2.91165 36.7162 7.70696 35.2099L7.68977 35.2084L7.71477 35.2037C4.38039 34.6646 4.1304 30.5209 5.79602 29.0943C7.62727 27.5224 9.73196 28.8803 14.0804 27.6381L14.1273 27.6318C14.0804 31.4537 17.8023 33.5068 15.8507 35.6943C13.7945 37.9959 10.9882 35.5381 11.3851 33.2724L11.3945 33.2271L11.3882 33.2396V33.2334L11.382 33.2521C9.66164 36.1427 11.8398 38.3334 14.2866 38.3334C15.6913 38.3334 17.1851 37.6115 18.082 35.8849C19.9788 32.2334 14.3554 25.8349 19.582 25.8349C24.807 25.8349 19.1835 32.2334 21.0804 35.8849C21.9773 37.6115 23.471 38.3334 24.8773 38.3334C27.332 38.3334 29.5179 36.1287 27.7679 33.2271L27.7757 33.2599L27.7663 33.2334C28.1976 35.5099 25.371 38.0099 23.3054 35.6943C21.3616 33.5006 25.0726 31.4474 25.0335 27.6271C29.4179 28.8959 31.5288 27.5146 33.3679 29.0959C35.0335 30.5193 34.7835 34.6646 31.4491 35.2052H31.4601C36.257 36.7021 38.2991 27.3084 31.4882 25.7412L31.496 25.7396C38.4335 25.174 39.3226 18.5943 37.4679 16.0771H37.4695ZM5.84758 16.6865C5.63352 13.1771 8.67571 10.3224 9.61477 9.52869C10.9241 8.424 11.4351 7.54119 11.1741 6.83025C11.0918 6.61656 10.9529 6.42926 10.7724 6.28835C10.5919 6.14745 10.3764 6.05824 10.1491 6.03025C9.85065 5.98439 9.54591 6.00034 9.25383 6.07712C9.51789 5.949 9.82414 5.874 10.1507 5.874C10.8929 5.874 11.5038 6.22244 11.7054 6.76306C11.8882 7.25212 11.8929 8.3365 9.87102 10.0959C6.67258 12.8818 6.41321 16.224 7.23821 18.424C7.95383 20.3349 9.53508 21.5709 11.2695 21.5709C11.546 21.5709 11.8241 21.5396 12.1023 21.4818C11.2585 22.2006 10.2898 22.4349 9.89602 22.5068C7.56165 20.874 5.97102 18.7271 5.84758 16.6834V16.6865ZM13.9851 27.4256C12.2116 27.8974 10.3991 27.924 9.23821 27.9302C7.79446 27.9396 6.65227 27.9459 5.5929 28.8568C4.62883 29.6818 4.22883 31.3474 4.64133 32.8193C4.78352 33.3271 4.93821 33.8443 5.30696 34.1584C5.58508 34.3974 6.06008 34.7365 6.53665 34.974L6.51165 34.9678C6.54133 34.9834 6.56321 35.0037 6.5929 35.0193C5.04133 34.6881 4.13665 33.1756 4.02727 31.6849C3.88977 29.8021 4.96789 27.4224 8.45227 26.9115C9.00539 26.8302 9.58977 26.7818 10.1726 26.7334C11.5945 26.6146 13.0632 26.4912 14.0741 25.8896C14.0366 26.4834 14.0023 27.1209 13.9851 27.4256ZM14.3757 23.2318C13.3601 24.7912 11.3507 25.0334 9.57883 25.2474C9.07883 25.3068 8.62102 25.3771 8.19915 25.4631L7.64289 25.4256C4.82883 25.1818 2.73508 23.8537 1.74446 21.6818C1.28477 20.6776 1.09467 19.5709 1.1929 18.4709C1.1929 18.4709 1.25227 17.8834 1.36165 17.2677C1.22571 18.9787 1.68508 20.6084 2.73665 21.9506C3.41545 22.8073 4.27886 23.4999 5.26254 23.9766C6.24622 24.4533 7.3248 24.7018 8.41789 24.7037C10.496 24.7037 12.4616 23.7818 13.957 22.1052C14.4726 21.5271 14.7038 21.4834 14.7632 21.4834C14.9632 21.774 14.7929 22.5896 14.3773 23.2318H14.3757ZM24.332 14.6334C24.332 16.7381 21.946 16.7381 21.946 14.6334C21.946 12.5287 24.332 12.5287 24.332 14.6334ZM21.5116 6.05212C21.5116 7.20994 19.582 7.20994 19.582 6.05212C19.582 4.89587 21.5116 4.89587 21.5116 6.05212ZM21.1085 18.7959C21.1085 19.9662 21.0148 20.9146 20.9007 20.9146C20.7866 20.9146 20.7038 19.9693 20.7054 18.7974C20.7054 17.6256 20.8023 16.6787 20.9132 16.6787C21.0226 16.6787 21.1132 17.6256 21.1085 18.7959ZM19.621 16.274C19.7085 16.274 19.7773 17.4146 19.7773 18.8224C19.7773 20.2302 19.7085 21.3709 19.621 21.3709C19.5335 21.3709 19.4648 20.2302 19.4648 18.824C19.4648 17.4146 19.5351 16.274 19.621 16.274ZM19.3195 3.44587C19.3195 4.24431 17.9929 4.24431 17.9929 3.44587C17.9929 2.64744 19.3195 2.65525 19.3195 3.44587ZM18.4023 10.0396C18.4023 9.4865 19.3195 9.49119 19.3195 10.0396C19.3195 10.5927 18.4023 10.5927 18.4023 10.0396ZM18.4741 18.824C18.4741 20.024 18.3741 20.9959 18.2601 20.9959C18.146 20.9959 18.0538 20.024 18.0554 18.8256C18.057 17.6271 18.1554 16.6552 18.271 16.6552C18.3866 16.6552 18.4773 17.624 18.4741 18.824ZM18.4741 7.11306C18.4741 7.90994 17.1476 7.90994 17.1476 7.11306C17.1476 6.31619 18.4741 6.31619 18.4741 7.11306ZM16.682 5.18494C16.682 5.7365 15.7648 5.7365 15.7648 5.18494C15.7648 4.63337 16.682 4.63337 16.682 5.18494ZM16.557 9.10369C16.557 9.50212 15.8929 9.50212 15.8929 9.10369C15.8929 8.70369 16.557 8.70369 16.557 9.10369ZM14.8382 14.6349C14.8382 12.5302 17.2257 12.5302 17.2257 14.6349C17.2257 16.7396 14.8382 16.7396 14.8382 14.6349ZM23.1616 28.8349C23.0398 29.9912 22.7351 30.9912 22.4648 31.8756C21.9226 33.6537 21.4929 35.0568 22.8429 36.5662C23.4101 37.2021 24.1382 37.5381 24.946 37.5381C25.946 37.5381 26.9429 37.0068 27.546 36.149C27.8153 35.7547 27.9891 35.3033 28.0538 34.8302C28.0804 35.0802 28.0945 35.3146 28.0773 35.4818C28.0466 35.8361 27.9417 36.18 27.7695 36.4912C27.2445 37.4209 26.1085 38.0224 24.8788 38.0224C23.3945 38.0224 22.1132 37.1912 21.3585 35.7427C20.607 34.2943 21.1523 32.2834 21.6351 30.5084C22.107 28.7662 22.5163 27.2631 21.7976 26.324C21.3866 25.7849 20.6616 25.524 19.5835 25.524C18.5038 25.524 17.7788 25.7849 17.3679 26.324C16.6491 27.2615 17.0585 28.7662 17.5304 30.5084C18.0132 32.2834 18.5585 34.2943 17.807 35.7427C17.0538 37.1912 15.771 38.0224 14.2882 38.0224C13.057 38.0224 11.921 37.4209 11.396 36.4912C11.1165 35.9884 11.0162 35.4054 11.1116 34.8381C11.1866 35.3006 11.3335 35.7474 11.6163 36.1506C12.221 37.0052 13.2179 37.5381 14.2179 37.5381C15.0273 37.5381 15.7554 37.2021 16.3241 36.5662C17.671 35.0568 17.2429 33.6568 16.6991 31.8818C16.4288 30.9959 16.1226 29.9912 16.0038 28.8349C15.8476 27.3256 16.1898 25.9802 16.9413 25.1474C17.5648 24.4584 18.4523 24.1068 19.582 24.1068C20.7116 24.1068 21.6023 24.4568 22.2226 25.1459C22.9726 25.9787 23.3163 27.3224 23.1601 28.8334L23.1616 28.8349ZM27.8945 21.574C29.6288 21.574 31.2101 20.3396 31.9241 18.4271C32.746 16.2271 32.4866 12.8849 29.2835 10.099C27.2601 8.33806 27.2648 7.25525 27.4476 6.76462C27.6507 6.22556 28.2601 5.87556 29.0007 5.87556C29.3023 5.87556 29.582 5.94587 29.832 6.05525L29.8491 6.0615C29.5756 6.00128 29.2933 5.99175 29.0163 6.03337C28.789 6.06136 28.5736 6.15058 28.3931 6.29148C28.2126 6.43238 28.0737 6.61968 27.9913 6.83337C27.732 7.54431 28.2413 8.42712 29.5507 9.53337C30.4882 10.3256 33.532 13.1802 33.3179 16.6865C33.1929 18.7302 31.6038 20.8771 29.2695 22.5099C28.4582 22.3634 27.6984 22.0104 27.0632 21.4849C27.3398 21.5443 27.6195 21.574 27.8945 21.574ZM35.1366 31.6818C35.0273 33.1756 34.121 34.6849 32.5663 35.0162C32.5898 35.0037 32.6101 34.9881 32.632 34.974C33.1085 34.7349 33.582 34.399 33.8585 34.1615C34.2257 33.8459 34.382 33.3287 34.5241 32.8209C34.9366 31.349 34.5366 29.6834 33.5726 28.8584C32.5132 27.949 31.371 27.9412 29.9273 27.9318C28.7663 27.9256 26.9538 27.899 25.1773 27.4271C25.1616 27.1209 25.1304 26.4865 25.0929 25.8912C26.1038 26.4943 27.5757 26.6178 28.9991 26.7381C29.582 26.7865 30.1616 26.8349 30.7132 26.9146C34.1976 27.4256 35.2741 29.8021 35.1351 31.6803L35.1366 31.6818ZM30.971 25.4646C30.5476 25.3771 30.0882 25.3084 29.5866 25.2459C27.8132 25.0334 25.8038 24.7912 24.7898 23.2302C24.371 22.5896 24.196 21.7771 24.3335 21.5271C24.3575 21.5182 24.3829 21.5135 24.4085 21.5131C24.5491 21.5131 24.7804 21.6271 25.207 22.1052C26.7023 23.7818 28.671 24.7037 30.7476 24.7037C32.957 24.7037 35.082 23.6724 36.4304 21.949C37.4804 20.6084 37.9382 18.9802 37.8054 17.2709C37.9148 17.8849 37.9726 18.474 37.9726 18.474C38.0705 19.5735 37.8804 20.6796 37.421 21.6834C36.4304 23.8552 34.3366 25.1834 31.5226 25.4271L30.971 25.4646ZM15.8304 13.7537C15.8881 13.7898 15.9347 13.8411 15.9651 13.9021C15.9954 13.963 16.0083 14.0312 16.0023 14.099C16.007 14.1501 16.001 14.2016 15.9847 14.2502C15.9684 14.2988 15.9421 14.3435 15.9076 14.3814C15.873 14.4193 15.8309 14.4495 15.784 14.4703C15.7371 14.491 15.6864 14.5017 15.6351 14.5017C15.5838 14.5017 15.5331 14.491 15.4862 14.4703C15.4392 14.4495 15.3972 14.4193 15.3626 14.3814C15.3281 14.3435 15.3018 14.2988 15.2855 14.2502C15.2692 14.2016 15.2632 14.1501 15.2679 14.099C15.2612 14.0305 15.274 13.9615 15.3046 13.8999C15.3353 13.8384 15.3826 13.7866 15.4413 13.7506C15.4999 13.7146 15.5675 13.6958 15.6363 13.6964C15.7051 13.6969 15.7723 13.7168 15.8304 13.7537ZM22.5413 14.4459C22.4832 14.4098 22.4363 14.3582 22.406 14.2969C22.3756 14.2356 22.363 14.1671 22.3695 14.099C22.3662 14.0489 22.3732 13.9986 22.3902 13.9513C22.4071 13.904 22.4335 13.8607 22.4679 13.824C22.5022 13.7874 22.5437 13.7581 22.5898 13.7382C22.6359 13.7182 22.6856 13.7079 22.7359 13.7079C22.7861 13.7079 22.8358 13.7182 22.8819 13.7382C22.928 13.7581 22.9695 13.7874 23.0038 13.824C23.0382 13.8607 23.0646 13.904 23.0816 13.9513C23.0985 13.9986 23.1055 14.0489 23.1023 14.099C23.1084 14.1672 23.0955 14.2357 23.0648 14.297C23.0342 14.3582 22.9872 14.4097 22.9289 14.4457C22.8707 14.4817 22.8036 14.5008 22.7352 14.5008C22.6667 14.5009 22.5996 14.4818 22.5413 14.4459Z" fill="white"/>
</g>
<defs>
<clipPath id="clip0_176_330">
<rect width="37.5" height="37.5" fill="white" transform="translate(0.833496 0.833374)"/>
</clipPath>
</defs>
</svg>
